<svg xmlns="http://www.w3.org/2000/svg" version="1.1" viewBox="158.56 127.23 179.43 246.25">
<path d="M0 0 C6.66839219 5.99147116 9.96545293 13.87408008 10.93359375 22.6875 C11.20081144 28.41041222 10.72394879 33.49898862 7.80859375 38.5625 C6.48288408 41.72380767 7.22620555 44.24278069 7.99609375 47.5 C9.02030636 49.60938785 9.02030636 49.60938785 10.99609375 50.5 C15.42022651 50.28932701 19.43180138 48.73730842 23.5546875 47.21875 C36.65332965 43.36250975 51.04607889 45.08091263 63.99609375 48.5 C65.32929863 48.83384672 66.6625707 49.16742645 67.99609375 49.5 C68.65609375 48.18 69.31609375 46.86 69.99609375 45.5 C69.37734375 44.7575 68.75859375 44.015 68.12109375 43.25 C64.56046193 37.8388606 63.41084202 30.9829615 64.4765625 24.640625 C65.62150695 20.71178008 67.11458808 17.13097585 68.99609375 13.5 C69.65609375 13.5 70.31609375 13.5 70.99609375 13.5 C70.99609375 12.84 70.99609375 12.18 70.99609375 11.5 C72.43179641 10.68432826 73.86972809 9.87257907 75.30859375 9.0625 C76.50935547 8.38380859 76.50935547 8.38380859 77.734375 7.69140625 C82.75452922 5.04693814 87.43896465 4.81616658 92.99609375 5.5 C99.80370652 7.72269055 105.167404 11.39479202 108.99609375 17.5 C112.19275908 23.97049155 112.16238835 32.06528699 110.34375 38.98046875 C107.59114885 45.08817172 103.16609962 49.26609247 96.9453125 51.6875 C94.83211028 52.37587246 92.70709139 53.02935074 90.5703125 53.640625 C87.86878151 54.32944129 87.86878151 54.32944129 85.99609375 56.5 C85.15670106 59.2392959 85.15670106 59.2392959 85.99609375 62.5 C87.52663098 64.2606202 87.52663098 64.2606202 89.49609375 66 C101.00915945 76.73736269 105.96567101 91.84059868 106.51611328 107.22729492 C106.7787136 126.68537498 101.59097803 141.64260133 88.5703125 156.21484375 C86.76005323 158.04439531 84.93312205 159.80645291 82.99609375 161.5 C84.65742765 165.88055755 86.63159336 170.13549961 89.99609375 173.5 C91.43265229 173.58131463 92.87054205 173.63933559 94.30859375 173.6875 C102.59246904 174.47078907 110.21832509 178.17466152 115.99609375 184.1875 C119.61687053 188.80619819 121.46512805 193.88094211 122.99609375 199.5 C123.18300781 200.17933594 123.36992187 200.85867188 123.5625 201.55859375 C124.99186049 208.79567162 122.59425082 216.87708121 119.24609375 223.3125 C113.42026362 231.56575935 107.03891139 236.39424791 96.99609375 238.5 C86.00641879 239.39022507 78.1786233 237.60474486 69.4296875 230.90234375 C68.72005859 230.20818359 68.72005859 230.20818359 67.99609375 229.5 C67.99609375 228.84 67.99609375 228.18 67.99609375 227.5 C67.33609375 227.5 66.67609375 227.5 65.99609375 227.5 C60.33003936 217.41546284 57.53279818 209.41152692 60.19921875 197.953125 C61.94874435 192.56733051 64.73245961 187.99640885 68.37109375 183.6875 C70.24304418 181.67522514 70.24304418 181.67522514 69.80859375 179.4375 C69.40640625 178.4784375 69.40640625 178.4784375 68.99609375 177.5 C68.66276042 176.16666667 68.32942708 174.83333333 67.99609375 173.5 C67.33609375 173.5 66.67609375 173.5 65.99609375 173.5 C65.99609375 172.84 65.99609375 172.18 65.99609375 171.5 C64.41634766 171.933125 64.41634766 171.933125 62.8046875 172.375 C42.41457765 177.72552865 24.23080242 176.10515708 5.81445312 165.61572266 C1.54186369 162.99411502 -2.29216192 159.85484584 -6.00390625 156.5 C-5.68164062 157.50160156 -5.359375 158.50320313 -5.02734375 159.53515625 C-2.98396803 166.72675381 -2.41228195 175.96636463 -5.44140625 182.9375 C-9.14618791 188.98423293 -15.18901827 194.4272225 -22.00390625 196.5 C-30.88500792 197.53016442 -38.73636951 197.04099486 -46.00390625 191.5 C-51.6120556 185.80850236 -55.09460265 179.16860606 -55.44140625 171.125 C-55.19135307 162.83914682 -51.80106868 156.29716243 -46.00390625 150.5 C-41.82176445 147.67569645 -37.93245757 145.4330976 -32.87109375 145.18359375 C-31.66259766 145.12075195 -31.66259766 145.12075195 -30.4296875 145.05664062 C-29.58792969 145.01732422 -28.74617188 144.97800781 -27.87890625 144.9375 C-27.02941406 144.89431641 -26.17992187 144.85113281 -25.3046875 144.80664062 C-23.20462402 144.70045764 -21.10428677 144.59971503 -19.00390625 144.5 C-17.3151884 141.36463307 -16.84424111 140.04329495 -17.8671875 136.5625 C-18.58455078 135.0465625 -18.58455078 135.0465625 -19.31640625 133.5 C-25.28203942 120.68614683 -25.50954523 102.26347103 -20.75390625 88.9375 C-19.89110912 86.76944567 -18.98051937 84.6192228 -18.00390625 82.5 C-17.39869141 81.17355469 -17.39869141 81.17355469 -16.78125 79.8203125 C-15.91160523 78.01868283 -14.9693753 76.25214754 -14.00390625 74.5 C-13.34390625 74.5 -12.68390625 74.5 -12.00390625 74.5 C-11.77703125 73.79875 -11.55015625 73.0975 -11.31640625 72.375 C-10.00390625 69.5 -10.00390625 69.5 -7.37890625 66.5 C-4.77364554 63.75608221 -4.77364554 63.75608221 -4.69140625 60.625 C-4.84609375 59.573125 -4.84609375 59.573125 -5.00390625 58.5 C-8.47954141 56.31163712 -10.08791764 56.68370942 -14.00390625 57.5 C-22.87643289 58.16083532 -30.09104166 57.705541 -38.00390625 53.5 C-39.07640625 52.943125 -40.14890625 52.38625 -41.25390625 51.8125 C-47.98767021 46.15001667 -52.46327497 38.01310412 -53.3203125 29.2734375 C-53.63111979 20.06953133 -52.0682496 12.68581182 -47.37890625 4.75 C-33.51624757 -8.38304506 -15.91022277 -11.90940652 0 0 Z M-34.00390625 17.5 C-35.54524163 22.12400615 -35.8900114 26.85687494 -34.3203125 31.5390625 C-32.0666308 35.93420938 -29.64349585 37.98321109 -25.00390625 39.5 C-20.64054509 40.19813779 -17.76548237 39.86614237 -13.75390625 37.9375 C-9.43657673 34.11077611 -7.32372476 30.73872959 -6.50390625 25 C-7.20991867 20.05791309 -8.69828723 16.3980883 -12.6171875 13.171875 C-20.68462825 8.09171276 -28.07162665 10.46915011 -34.00390625 17.5 Z M83.12109375 25.6875 C81.82831921 28.91943634 81.69306124 30.28585313 82.99609375 33.5 C85.41141458 35.39775208 86.62043181 35.5349453 89.68359375 35.25 C90.44671875 35.0025 91.20984375 34.755 91.99609375 34.5 C93.51759533 31.45699684 93.23508768 28.845915 92.99609375 25.5 C89.08230381 22.89080671 86.42158876 21.83692249 83.12109375 25.6875 Z M23.99609375 79.5 C22.97515625 79.99113281 22.97515625 79.99113281 21.93359375 80.4921875 C14.08279843 84.56627447 9.81700637 92.39038035 7.05859375 100.5625 C4.57324031 110.33410702 5.63179528 119.53001938 10.58984375 128.328125 C16.07449925 136.55510825 23.48917786 142.48527003 32.99609375 145.5 C45.79133513 146.68194496 55.87120262 144.86404049 65.99609375 136.5 C65.99609375 135.84 65.99609375 135.18 65.99609375 134.5 C66.65609375 134.5 67.31609375 134.5 67.99609375 134.5 C72.14734385 129.49721142 74.28982736 124.73709538 75.99609375 118.5 C76.27453125 117.50419922 76.27453125 117.50419922 76.55859375 116.48828125 C78.39266029 108.15310386 76.56737097 99.97044601 72.3671875 92.66796875 C67.0733295 84.85017038 60.20360196 78.31595201 50.99609375 75.5 C41.62838779 74.44523245 32.14203689 74.37484411 23.99609375 79.5 Z M-35.00390625 164.5 C-37.34559389 168.01253146 -37.50014302 169.36469356 -37.00390625 173.5 C-35.66275226 176.50979883 -35.66275226 176.50979883 -33.00390625 178.5 C-29.995181 179.19618391 -28.17676661 178.95326577 -25.00390625 178.5 C-22.08608988 176.22045596 -22.02570238 174.67436907 -21.56640625 171 C-21.72363453 167.49739463 -21.72363453 167.49739463 -23.69140625 165.125 C-27.70312259 162.30595608 -30.85426336 161.63817732 -35.00390625 164.5 Z M79.99609375 197.5 C77.4011968 201.93643671 76.40131896 205.4935248 77.2890625 210.5078125 C78.93703117 215.15126014 82.29968247 218.35377617 86.30859375 221.0625 C91.59877204 221.92369181 96.30631167 220.49182861 100.87109375 217.8125 C103.97266849 214.4372569 105.77127461 211.15600287 106.1640625 206.515625 C105.86490349 200.79836395 103.13482362 197.28743184 98.99609375 193.5 C92.12750649 190.06570637 84.73584306 191.93079456 79.99609375 197.5 Z " fill="#E1BFF1" transform="translate(214.00390625,134.5)"/>
<path d="M0 0 C1.65 0 3.3 0 5 0 C4.979375 0.9075 4.95875 1.815 4.9375 2.75 C4.86248264 5.86712481 4.86248264 5.86712481 5.625 8.25 C5.74875 8.8275 5.8725 9.405 6 10 C5.34 10.66 4.68 11.32 4 12 C3.34 12 2.68 12 2 12 C2.33 13.65 2.66 15.3 3 17 C2.2575 17.28875 1.515 17.5775 0.75 17.875 C-3.4571484 21.12597831 -4.85304798 24.87244979 -6 30 C-6.21418824 34.44695591 -6.12369321 38.68080423 -5 43 C-3.06510343 45.19562294 -3.06510343 45.19562294 -1 47 C-0.67 47.99 -0.34 48.98 0 50 C2.81509993 52.2773501 2.81509993 52.2773501 6 52 C6.1546875 52.90298828 6.1546875 52.90298828 6.3125 53.82421875 C7.38050843 57.2042227 9.16530908 58.32345867 12.16015625 60.078125 C20.02488178 62.63118583 30.10215612 61.22952476 37.5625 57.9375 C38.696875 57.298125 39.83125 56.65875 41 56 C41 55.01 41 54.02 41 53 C41.99 53 42.98 53 44 53 C44.495 52.01 44.495 52.01 45 51 C45.680625 50.4121875 45.680625 50.4121875 46.375 49.8125 C48.71641676 47.20091977 49.69513072 44.23380649 51 41 C51.52013672 40.09314453 51.52013672 40.09314453 52.05078125 39.16796875 C53.28786066 36.34254048 53.42478551 33.81995546 53.625 30.75 C53.69976562 29.67234375 53.77453125 28.5946875 53.8515625 27.484375 C53.90054688 26.66453125 53.94953125 25.8446875 54 25 C54.33 25 54.66 25 55 25 C56.74993507 33.27242031 55.15928286 41.29855372 51.25 48.8125 C45.42416987 57.06575935 39.04281764 61.89424791 29 64 C18.01032504 64.89022507 10.18252955 63.10474486 1.43359375 56.40234375 C0.96050781 55.93957031 0.48742187 55.47679687 0 55 C0 54.34 0 53.68 0 53 C-0.66 53 -1.32 53 -2 53 C-7.66605439 42.91546284 -10.46329557 34.91152692 -7.796875 23.453125 C-6.0473494 18.06733051 -3.26363414 13.49640885 0.375 9.1875 C2.25193749 7.16700404 2.25193749 7.16700404 1.8125 4.875 C1.544375 4.25625 1.27625 3.6375 1 3 C0.67 2.01 0.34 1.02 0 0 Z M7 50 C7.66 50.33 8.32 50.66 9 51 C8.01 51 7.02 51 6 51 C6.33 50.67 6.66 50.34 7 50 Z " fill="#B04AD8" transform="translate(282,309)"/>
<path d="M0 0 C1.134375 0.020625 2.26875 0.04125 3.4375 0.0625 C2.04835525 4.35968953 0.05718015 6.76937757 -3.1875 9.875 C-4.00476563 10.66519531 -4.82203125 11.45539063 -5.6640625 12.26953125 C-6.29054688 12.86121094 -6.91703125 13.45289063 -7.5625 14.0625 C-5.9011661 18.44305755 -3.92700039 22.69799961 -0.5625 26.0625 C0.87405854 26.14381463 2.3119483 26.20183559 3.75 26.25 C12.15514173 27.04475552 19.7666749 30.78284999 25.5 37 C29.2155672 41.73961376 31.4375 45.91455334 31.4375 52.0625 C30.4475 52.3925 29.4575 52.7225 28.4375 53.0625 C28.1075 49.7625 27.7775 46.4625 27.4375 43.0625 C26.1175 42.7325 24.7975 42.4025 23.4375 42.0625 C23.4375 40.7425 23.4375 39.4225 23.4375 38.0625 C20.4675 37.4025 17.4975 36.7425 14.4375 36.0625 C13.9425 33.5875 13.9425 33.5875 13.4375 31.0625 C6.8375 30.4025 0.2375 29.7425 -6.5625 29.0625 C-6.5625 26.7525 -6.5625 24.4425 -6.5625 22.0625 C-9.69599732 21.01800089 -10.55218256 21.12826355 -13.5625 22.0625 C-12.5725 20.5775 -12.5725 20.5775 -11.5625 19.0625 C-11.43875 18.175625 -11.315 17.28875 -11.1875 16.375 C-10.38764512 12.13576914 -8.58552805 8.83372964 -6.5625 5.0625 C-6.21058594 4.34320313 -5.85867188 3.62390625 -5.49609375 2.8828125 C-3.87572038 -0.27657658 -3.95497169 0.06938547 0 0 Z " fill="#B262DB" transform="translate(304.5625,281.9375)"/>
<path d="M0 0 C1.125 1.75 1.125 1.75 2 4 C1.26500534 6.77664649 0.39532185 7.74057004 -2 9.3125 C-5.78987846 10.18101381 -8.89104494 9.64941022 -12.6953125 8.99609375 C-15.09061104 8.75780784 -15.09061104 8.75780784 -16.8046875 10.47265625 C-17.19914062 10.97667969 -17.59359375 11.48070312 -18 12 C-18 11.34 -18 10.68 -18 10 C-21.27773504 10.75150023 -21.27773504 10.75150023 -23 14 C-24.32 14 -25.64 14 -27 14 C-32.24205272 18.37673779 -33.74438251 23.91541865 -34.6328125 30.43359375 C-35.06278938 33.43885769 -35.92727029 36.16492863 -37 39 C-39.53410943 36.46589057 -39.32552882 35.4549012 -39.375 31.9375 C-39.2089159 23.47828321 -35.92662924 16.92662924 -30 11 C-25.83945072 8.19027841 -22.02603485 5.89309041 -16.97265625 5.859375 C-16.18052734 5.84003906 -15.38839844 5.82070313 -14.57226562 5.80078125 C-12.90323687 5.76701102 -11.23382145 5.74870418 -9.56445312 5.74609375 C-7.27158857 5.67531483 -5.22260817 5.5726196 -3 5 C-0.85239447 2.62428879 -0.85239447 2.62428879 0 0 Z " fill="#DC9EF6" transform="translate(198,274)"/>
<path d="M0 0 C2.97 0.495 2.97 0.495 6 1 C5.34 2.32 4.68 3.64 4 5 C4.66 5.33 5.32 5.66 6 6 C6.66 6.66 7.32 7.32 8 8 C8.99 8 9.98 8 11 8 C11 8.66 11 9.32 11 10 C11.66 10 12.32 10 13 10 C13.33 9.34 13.66 8.68 14 8 C14.66 9.98 15.32 11.96 16 14 C22.21544161 14.82787644 27.82138855 15.23572229 34 14 C34.33 13.34 34.66 12.68 35 12 C36.875 10.8125 36.875 10.8125 39 10 C39.99 10.33 40.98 10.66 42 11 C35.03986419 17.15081769 29.98113676 18.53840767 20.58203125 18.37109375 C14.28779344 17.71901895 9.54223022 15.57862207 5.08984375 11.0625 C2.31966644 7.60469003 0.28403031 4.54448501 0 0 Z " fill="#C675E9" transform="translate(161,313)"/>
<path d="M0 0 C1.134375 0.020625 2.26875 0.04125 3.4375 0.0625 C2.04835525 4.35968953 0.05718015 6.76937757 -3.1875 9.875 C-4.00476563 10.66519531 -4.82203125 11.45539063 -5.6640625 12.26953125 C-6.29054688 12.86121094 -6.91703125 13.45289063 -7.5625 14.0625 C-4.58095039 21.82413001 -4.58095039 21.82413001 -0.5625 29.0625 C-2.5425 29.0625 -4.5225 29.0625 -6.5625 29.0625 C-6.5625 26.7525 -6.5625 24.4425 -6.5625 22.0625 C-9.69599732 21.01800089 -10.55218256 21.12826355 -13.5625 22.0625 C-12.5725 20.5775 -12.5725 20.5775 -11.5625 19.0625 C-11.43875 18.175625 -11.315 17.28875 -11.1875 16.375 C-10.38764512 12.13576914 -8.58552805 8.83372964 -6.5625 5.0625 C-6.21058594 4.34320313 -5.85867188 3.62390625 -5.49609375 2.8828125 C-3.87572038 -0.27657658 -3.95497169 0.06938547 0 0 Z " fill="#BB7BDF" transform="translate(304.5625,281.9375)"/>
<path d="M0 0 C0.66 0.33 1.32 0.66 2 1 C2 1.66 2 2.32 2 3 C2.99 2.67 3.98 2.34 5 2 C5 2.66 5 3.32 5 4 C7.97 4.495 7.97 4.495 11 5 C12.99020346 10.04184877 14.34702662 15.55074422 14 21 C12.51171875 22.80078125 12.51171875 22.80078125 11 24 C11.06960938 23.14728516 11.06960938 23.14728516 11.140625 22.27734375 C11.42417158 16.21147217 10.56032663 12.9448981 7 8 C3.07206332 4.3617593 -0.21122761 4.50321179 -5.37109375 4.640625 C-8.91123904 5.1245676 -10.61087404 6.38689349 -13 9 C-13.598125 9.5775 -14.19625 10.155 -14.8125 10.75 C-15.4003125 11.36875 -15.4003125 11.36875 -16 12 C-15.75 8.625 -15.75 8.625 -15 5 C-12.58076223 3.16471618 -9.94919597 2.63197056 -7 2 C-7 1.34 -7 0.68 -7 0 C-4.30919898 -1.34540051 -2.86443593 -0.71610898 0 0 Z " fill="#AC56CF" transform="translate(308,323)"/>
<path d="M0 0 C0.69480469 0.15984375 1.38960938 0.3196875 2.10546875 0.484375 C2.66878906 0.73703125 3.23210937 0.9896875 3.8125 1.25 C4.1425 2.24 4.4725 3.23 4.8125 4.25 C4.4825 4.91 4.1525 5.57 3.8125 6.25 C5.4625 6.58 7.1125 6.91 8.8125 7.25 C8.8125 7.91 8.8125 8.57 8.8125 9.25 C10.4625 9.91 12.1125 10.57 13.8125 11.25 C13.8125 12.57 13.8125 13.89 13.8125 15.25 C13.1525 15.25 12.4925 15.25 11.8125 15.25 C12.1425 16.57 12.4725 17.89 12.8125 19.25 C8.07565789 14.64473684 8.07565789 14.64473684 6.1875 11.8125 C3.01034799 8.3845202 -0.65600194 6.72238978 -4.82421875 4.6796875 C-7.1875 3.25 -7.1875 3.25 -8.1875 0.25 C-5.14123824 -0.70837449 -3.09536364 -0.76658162 0 0 Z " fill="#F5DFFB" transform="translate(274.1875,208.75)"/>
<path d="M0 0 C2.06277107 0.14194764 4.12521031 0.28872216 6.1875 0.4375 C7.91033203 0.55931641 7.91033203 0.55931641 9.66796875 0.68359375 C13 1 13 1 15.54296875 1.52734375 C18.44449054 2.08550613 21.17181691 2.13240146 24.125 2.125 C25.15882813 2.12757813 26.19265625 2.13015625 27.2578125 2.1328125 C30.09234305 2.11919881 30.09234305 2.11919881 33 1 C35.73289293 0.77202438 38.45042204 0.58331813 41.1875 0.4375 C41.93708984 0.39431641 42.68667969 0.35113281 43.45898438 0.30664062 C45.30578375 0.20077315 47.15286834 0.0999024 49 0 C49.495 1.485 49.495 1.485 50 3 C49.34 3 48.68 3 48 3 C48 2.34 48 1.68 48 1 C46.94683594 1.28875 45.89367187 1.5775 44.80859375 1.875 C30.27274257 5.68932414 16.54740237 6.53695811 2 2 C1.34 1.34 0.68 0.68 0 0 Z " fill="#9948C8" transform="translate(232,305)"/>
<path d="M0 0 C1.65 0 3.3 0 5 0 C4.979375 0.9075 4.95875 1.815 4.9375 2.75 C4.86248264 5.86712481 4.86248264 5.86712481 5.625 8.25 C5.74875 8.8275 5.8725 9.405 6 10 C5.34 10.66 4.68 11.32 4 12 C3.34 12 2.68 12 2 12 C2.33 13.65 2.66 15.3 3 17 C2.2575 17.28875 1.515 17.5775 0.75 17.875 C-3.3421097 21.03708477 -4.38846895 25.20141872 -6 30 C-6.33 30 -6.66 30 -7 30 C-7.248619 21.09633214 -5.43473881 16.13865827 0.3828125 9.375 C2.24400645 7.18289697 2.24400645 7.18289697 1.8046875 4.875 C1.53914063 4.25625 1.27359375 3.6375 1 3 C0.67 2.01 0.34 1.02 0 0 Z " fill="#C074E4" transform="translate(282,309)"/>
<path d="M0 0 C0.66 0.33 1.32 0.66 2 1 C1.195625 1.928125 0.39125 2.85625 -0.4375 3.8125 C-3.35750243 7.86124287 -3.53097021 11.31489274 -3.75390625 16.19921875 C-4.12183677 20.3866185 -5.47204494 24.10803901 -7 28 C-9.53410943 25.46589057 -9.32552882 24.4549012 -9.375 20.9375 C-9.20484966 12.2711758 -5.76830013 6.2489918 0 0 Z " fill="#B96DDE" transform="translate(168,285)"/>
<path d="M0 0 C4.37983972 4.37983972 3.25616009 11.18572155 3.3125 17 C3.34150391 17.99773437 3.37050781 18.99546875 3.40039062 20.0234375 C3.46463815 27.39707668 3.46463815 27.39707668 1.03125 30.5546875 C0.3609375 31.03164063 -0.309375 31.50859375 -1 32 C-1.88693303 34.04105639 -1.88693303 34.04105639 -2 36 C-1.67 36.66 -1.34 37.32 -1 38 C-2.32 38 -3.64 38 -5 38 C-5.66 36.68 -6.32 35.36 -7 34 C-6.401875 33.360625 -5.80375 32.72125 -5.1875 32.0625 C-2.46195923 28.24674292 -1.2578088 24.47844025 0 20 C0.18949219 19.33742187 0.37898438 18.67484375 0.57421875 17.9921875 C1.83517916 12.09228101 1.00113775 5.88168425 0 0 Z " fill="#B378D4" transform="translate(289,233)"/>
<path d="M0 0 C0 0.66 0 1.32 0 2 C0.66 2.33 1.32 2.66 2 3 C2 3.66 2 4.32 2 5 C2.78375 5.28875 3.5675 5.5775 4.375 5.875 C7 7 7 7 9 9 C10.98821313 9.39764263 12.98944339 9.73775349 15 10 C15.12375 10.804375 15.2475 11.60875 15.375 12.4375 C15.58125 13.283125 15.7875 14.12875 16 15 C16.66 15.33 17.32 15.66 18 16 C8.6967189 14.58141458 1.09937086 7.79610471 -6 2 C-6 3.65 -6 5.3 -6 7 C-6.33 7 -6.66 7 -7 7 C-7 5.02 -7 3.04 -7 1 C-4.53721199 -0.231394 -2.7204945 -0.07159196 0 0 Z " fill="#AE68D5" transform="translate(214,289)"/>
<path d="M0 0 C-0.165 0.7425 -0.33 1.485 -0.5 2.25 C-1.11925696 5.19006578 -1.11925696 5.19006578 -1 9 C-1.25390625 11.10546875 -1.25390625 11.10546875 -2 13 C-3.77734375 14.30078125 -3.77734375 14.30078125 -5.9375 15.3125 C-6.64777344 15.65925781 -7.35804688 16.00601563 -8.08984375 16.36328125 C-9.03537109 16.67845703 -9.03537109 16.67845703 -10 17 C-10.66 16.67 -11.32 16.34 -12 16 C-10.87375564 13.03081032 -10.31697933 12.15094254 -7.375 10.75 C-4.81285043 9.28824001 -4.81285043 9.28824001 -4.67578125 7.03515625 C-4.686403 5.02056466 -4.8354192 3.00788576 -5 1 C-2 0 -2 0 0 0 Z " fill="#F5EBFA" transform="translate(216,192)"/>
<path d="M0 0 C0.33 0 0.66 0 1 0 C1.45572917 2.01822917 1.91145833 4.03645833 2.3671875 6.0546875 C2.90474428 8.20719964 2.90474428 8.20719964 5 10 C7.32275177 10.40047444 9.65739357 10.7397104 12 11 C11.67 12.65 11.34 14.3 11 16 C7.04 16.495 7.04 16.495 3 17 C0.86313001 12.72626002 -0.11896237 10.23076378 -0.0625 5.375 C-0.05347656 4.37210937 -0.04445312 3.36921875 -0.03515625 2.3359375 C-0.02355469 1.56507813 -0.01195312 0.79421875 0 0 Z " fill="#CC88EA" transform="translate(176,302)"/>
<path d="M0 0 C3.61278224 1.3172268 6.52202533 2.95887353 9.6875 5.125 C14.30568098 7.98453335 17.60269887 8.5463012 22.96875 8.11328125 C25 8 25 8 27 9 C28.66619446 9.0396713 30.33391013 9.04384447 32 9 C26.85684696 12.42876869 20.43823224 11.63730473 14.4921875 10.53515625 C8.96005206 8.90635679 4.13381832 6.04370784 0 2 C0 1.34 0 0.68 0 0 Z " fill="#A744D2" transform="translate(282,362)"/>
<path d="M0 0 C-0.66 0 -1.32 0 -2 0 C-2.268125 0.61875 -2.53625 1.2375 -2.8125 1.875 C-4 4 -4 4 -7 6 C-9.125 5.75 -9.125 5.75 -12 5 C-13.60323294 4.64163028 -15.20747017 4.28773414 -16.8125 3.9375 C-18.20844918 3.62551788 -19.60432165 3.31319144 -21 3 C-21 2.34 -21 1.68 -21 1 C-19.95199219 0.93941406 -18.90398437 0.87882812 -17.82421875 0.81640625 C-16.44529952 0.73198262 -15.06639395 0.64733553 -13.6875 0.5625 C-12.99720703 0.52318359 -12.30691406 0.48386719 -11.59570312 0.44335938 C-0.7191311 -0.23971037 -0.7191311 -0.23971037 0 0 Z " fill="#DEA2F9" transform="translate(269,279)"/>
<path d="M0 0 C2.91829575 2.91829575 2.30055517 5.18875915 2.3125 9.25 C2.32925781 10.55453125 2.34601563 11.8590625 2.36328125 13.203125 C1.98454168 17.16156435 1.00110838 19.59969975 -1 23 C-2.5 21.6875 -2.5 21.6875 -4 20 C-4 19.01 -4 18.02 -4 17 C-3.34 16.67 -2.68 16.34 -2 16 C-1.52402634 13.29400158 -1.15906371 10.66404596 -0.875 7.9375 C-0.74544922 6.79958008 -0.74544922 6.79958008 -0.61328125 5.63867188 C-0.40060483 3.76003014 -0.19924541 1.88011364 0 0 Z " fill="#B161DA" transform="translate(208,296)"/>
<path d="M0 0 C0.66 0.33 1.32 0.66 2 1 C2 1.66 2 2.32 2 3 C1.41992188 3.01417969 0.83984375 3.02835937 0.2421875 3.04296875 C-5.90914259 3.41854501 -8.64756732 4.64756732 -13 9 C-13.928125 9.8971875 -13.928125 9.8971875 -14.875 10.8125 C-15.24625 11.204375 -15.6175 11.59625 -16 12 C-15.75 8.625 -15.75 8.625 -15 5 C-12.58076223 3.16471618 -9.94919597 2.63197056 -7 2 C-7 1.34 -7 0.68 -7 0 C-4.30919898 -1.34540051 -2.86443593 -0.71610898 0 0 Z " fill="#CB7DEE" transform="translate(308,323)"/>
<path d="M0 0 C0.33 0 0.66 0 1 0 C2.78328962 8.43009637 1.10130661 16.53995805 -3 24.125 C-5 27 -5 27 -8 29 C-7.31440691 23.51525524 -4.67538641 18.85236038 -1.91015625 14.14453125 C-0.71617635 11.33124815 -0.57340963 8.79228099 -0.375 5.75 C-0.30023438 4.67234375 -0.22546875 3.5946875 -0.1484375 2.484375 C-0.09945313 1.66453125 -0.05046875 0.8446875 0 0 Z " fill="#AF44D7" transform="translate(336,334)"/>
<path d="M0 0 C0.7907606 2.71117922 1.06555984 5.01617752 1.25 7.875 C1.81513223 12.60798245 3.57086754 14.72673719 7 18 C9.6514482 19.39819512 9.6514482 19.39819512 12 20 C12 20.33 12 20.66 12 21 C10.35 21 8.7 21 7 21 C7 21.66 7 22.32 7 23 C6.34 23 5.68 23 5 23 C4.938125 22.443125 4.87625 21.88625 4.8125 21.3125 C4.14837053 18.74123006 4.14837053 18.74123006 1.4375 17.0625 C-2.38565425 12.25904979 -1.58654279 6.93246132 -1 1 C-0.67 0.67 -0.34 0.34 0 0 Z " fill="#A246D2" transform="translate(291,335)"/>
<path d="M0 0 C-5.97482945 5.28008184 -9.97673979 7.28460805 -18.1875 7.25 C-20.03408203 7.25773437 -20.03408203 7.25773437 -21.91796875 7.265625 C-25 7 -25 7 -27 5 C-25.51886719 5.03480469 -25.51886719 5.03480469 -24.0078125 5.0703125 C-22.08582031 5.09738281 -22.08582031 5.09738281 -20.125 5.125 C-18.84882813 5.14820313 -17.57265625 5.17140625 -16.2578125 5.1953125 C-12.91406662 5.35641524 -12.91406662 5.35641524 -11 3 C-10.01 3 -9.02 3 -8 3 C-7.67 2.34 -7.34 1.68 -7 1 C-4.01793274 -0.8886426 -3.49368922 -1.16456307 0 0 Z " fill="#A748D0" transform="translate(203,324)"/>
<path d="M0 0 C7.71428571 6.14285714 7.71428571 6.14285714 9 11 C7.3603125 10.4740625 7.3603125 10.4740625 5.6875 9.9375 C2.09079627 8.66960546 2.09079627 8.66960546 -1 10 C-0.67 6.7 -0.34 3.4 0 0 Z " fill="#CFB0E6" transform="translate(300,198)"/>
<path d="M0 0 C-3.9706051 2.77942357 -7.98084884 3.99477696 -12.59765625 5.25390625 C-14.89225575 5.96653797 -16.88822963 6.8636432 -19 8 C-18.875 6.1875 -18.875 6.1875 -18 4 C-14.07855187 1.53769536 -10.55263299 0.59382169 -6 0 C-4.88625 -0.309375 -4.88625 -0.309375 -3.75 -0.625 C-2 -1 -2 -1 0 0 Z " fill="#BF9AD5" transform="translate(317,183)"/>
<path d="M0 0 C9.40662007 0.6027851 18.67344131 1.67132013 28 3 C28 3.33 28 3.66 28 4 C8.97524467 4.42487047 8.97524467 4.42487047 2 2 C1.34 1.34 0.68 0.68 0 0 Z " fill="#BB6ADD" transform="translate(232,305)"/>
<path d="M0 0 C1.65 0 3.3 0 5 0 C4.814375 0.66 4.62875 1.32 4.4375 2 C3.86972692 5.89330114 4.40718293 9.11375479 5 13 C3.02 13.99 3.02 13.99 1 15 C0.34 14.34 -0.32 13.68 -1 13 C-0.34 12.01 0.32 11.02 1 10 C1.19850603 6.29455413 1.17664871 3.52994613 0 0 Z " fill="#AF63D5" transform="translate(190,299)"/>
<path d="M0 0 C2.97 0.495 2.97 0.495 6 1 C5.34 2.32 4.68 3.64 4 5 C4.66 5.33 5.32 5.66 6 6 C7.05352843 8.30965848 8.05719096 10.6429774 9 13 C5.6227555 11.60724746 4.12929695 10.17726069 2.25 7.0625 C1.82203125 6.37285156 1.3940625 5.68320312 0.953125 4.97265625 C0 3 0 3 0 0 Z " fill="#B05DDB" transform="translate(161,313)"/>
<path d="M0 0 C2 0 2 0 4 1.6875 C6.07592424 4.0877874 6.93732883 6.03970174 8 9 C8.99 10.485 8.99 10.485 10 12 C8.02 12 6.04 12 4 12 C4 9.69 4 7.38 4 5 C0.86650268 3.95550089 0.01031744 4.06576355 -3 5 C-2.67 4.34 -2.34 3.68 -2 3 C-1.34 3 -0.68 3 0 3 C0 2.01 0 1.02 0 0 Z " fill="#CE8BF3" transform="translate(294,299)"/>
<path d="M0 0 C0.33 0 0.66 0 1 0 C1.39180108 1.57925975 1.76280736 3.16368794 2.125 4.75 C2.33382812 5.63171875 2.54265625 6.5134375 2.7578125 7.421875 C3.03088304 10.32875493 2.53508028 11.56661348 1 14 C0.34 13.67 -0.32 13.34 -1 13 C-1 11.68 -1 10.36 -1 9 C-1.66 9.66 -2.32 10.32 -3 11 C-2.69078116 9.54096742 -2.37751201 8.08279278 -2.0625 6.625 C-1.88847656 5.81289062 -1.71445313 5.00078125 -1.53515625 4.1640625 C-1 2 -1 2 0 0 Z " fill="#C79FDF" transform="translate(196,217)"/>
<path d="M0 0 C0.9075 0.309375 1.815 0.61875 2.75 0.9375 C5.16563338 1.7272263 7.52780285 2.42949297 10 3 C10 4.32 10 5.64 10 7 C9.34 7 8.68 7 8 7 C8.33 8.32 8.66 9.64 9 11 C5.36440339 7.56638098 2.63886654 4.2026393 0 0 Z " fill="#C090D4" transform="translate(278,217)"/>
<path d="M0 0 C0.33 0 0.66 0 1 0 C1.18175781 0.67546875 1.36351562 1.3509375 1.55078125 2.046875 C1.80214844 2.93890625 2.05351562 3.8309375 2.3125 4.75 C2.55613281 5.63171875 2.79976562 6.5134375 3.05078125 7.421875 C4.02125331 10.05772505 5.21005644 11.85407326 7 14 C6.67 14.66 6.34 15.32 6 16 C4.68 15.34 3.36 14.68 2 14 C2 13.34 2 12.68 2 12 C1.34 12 0.68 12 0 12 C0 8.04 0 4.08 0 0 Z " fill="#B772D3" transform="translate(220,250)"/>
<path d="M0 0 C0.33 0.99 0.66 1.98 1 3 C-1.97 5.475 -1.97 5.475 -5 8 C-7.475 7.01 -7.475 7.01 -10 6 C-9.34 4.68 -8.68 3.36 -8 2 C-7.05125 2.04125 -6.1025 2.0825 -5.125 2.125 C-1.89755144 2.34973818 -1.89755144 2.34973818 0 0 Z " fill="#FAEFFC" transform="translate(285,183)"/>
<path d="M0 0 C0.33 0 0.66 0 1 0 C1.34538204 3.10843835 1.23301458 4.62515045 -0.4375 7.3125 C-4.19233777 9.78519805 -7.62751253 9.33634519 -12 9 C-11.40445312 8.70996094 -10.80890625 8.41992188 -10.1953125 8.12109375 C-5.98273096 5.9698288 -2.64295811 3.96443717 0 0 Z " fill="#B056DB" transform="translate(318,347)"/>
<path d="M0 0 C0.83595703 0.00902344 1.67191406 0.01804687 2.53320312 0.02734375 C4.58475969 0.05079011 6.63616777 0.08665734 8.6875 0.125 C8.6875 0.455 8.6875 0.785 8.6875 1.125 C7.56730469 1.18558594 6.44710937 1.24617188 5.29296875 1.30859375 C3.82030016 1.39301424 2.34764456 1.47766149 0.875 1.5625 C0.13701172 1.60181641 -0.60097656 1.64113281 -1.36132812 1.68164062 C-4.54321342 1.86881035 -7.27412378 2.11220793 -10.3125 3.125 C-10.6425 3.785 -10.9725 4.445 -11.3125 5.125 C-12.9625 5.125 -14.6125 5.125 -16.3125 5.125 C-12.30661058 -0.88383413 -6.57901111 -0.13500733 0 0 Z " fill="#9147C3" transform="translate(186.3125,279.875)"/>
<path d="M0 0 C0.66 0.33 1.32 0.66 2 1 C2 2.32 2 3.64 2 5 C-2.455 6.485 -2.455 6.485 -7 8 C-7.66 7.34 -8.32 6.68 -9 6 C-6.03 4.02 -3.06 2.04 0 0 Z " fill="#BE78DB" transform="translate(278,271)"/>
<path d="M0 0 C-0.125 1.875 -0.125 1.875 -1 4 C-4.0625 5.25 -4.0625 5.25 -7 6 C-7.99 5.01 -8.98 4.02 -10 3 C-9 1 -9 1 -7.25 0.375 C-4.79549443 -0.03408426 -2.4840589 -0.06900164 0 0 Z " fill="#F3DCFA" transform="translate(243,208)"/>
<path d="M0 0 C1.125 1.75 1.125 1.75 2 4 C1.17133982 6.8174446 0.41463847 7.75609502 -2.125 9.25 C-2.74375 9.4975 -3.3625 9.745 -4 10 C-5.32 9.01 -6.64 8.02 -8 7 C-6.35 7 -4.7 7 -3 7 C-2.690625 6.21625 -2.38125 5.4325 -2.0625 4.625 C-1 2 -1 2 0 0 Z " fill="#CD8EEA" transform="translate(198,274)"/>
<path d="M0 0 C0.99 0.66 1.98 1.32 3 2 C3.29296875 4.6015625 3.29296875 4.6015625 3.1875 7.625 C3.16042969 8.62789063 3.13335937 9.63078125 3.10546875 10.6640625 C3.07066406 11.43492187 3.03585938 12.20578125 3 13 C2.71125 12.38125 2.4225 11.7625 2.125 11.125 C1.06279958 8.86674235 1.06279958 8.86674235 -1 7 C-1 5.68 -1 4.36 -1 3 C-1.66 2.67 -2.32 2.34 -3 2 C-2.01 1.34 -1.02 0.68 0 0 Z " fill="#D496F1" transform="translate(205,288)"/>
<path d="M0 0 C0 0.99 0 1.98 0 3 C-1.7015625 3.4021875 -1.7015625 3.4021875 -3.4375 3.8125 C-5.2009375 4.4003125 -5.2009375 4.4003125 -7 5 C-7.33 5.99 -7.66 6.98 -8 8 C-8.66 6.68 -9.32 5.36 -10 4 C-8.68 3.67 -7.36 3.34 -6 3 C-6 2.34 -6 1.68 -6 1 C-3 0 -3 0 0 0 Z " fill="#B86FE2" transform="translate(186,294)"/>
<path d="M0 0 C0.6875 1.6875 0.6875 1.6875 1 4 C-0.5002704 7.07555433 -2.19398645 9.97967025 -5 12 C-7.1875 11.6875 -7.1875 11.6875 -9 11 C-8.2575 10.484375 -7.515 9.96875 -6.75 9.4375 C-3.46371455 6.52465608 -2.01236241 3.87566094 0 0 Z " fill="#BE96CA" transform="translate(206,163)"/>
<path d="M0 0 C-0.66 0 -1.32 0 -2 0 C-2.33 0.99 -2.66 1.98 -3 3 C-8.94 2.67 -14.88 2.34 -21 2 C-21 1.67 -21 1.34 -21 1 C-19.95199219 0.93941406 -18.90398437 0.87882812 -17.82421875 0.81640625 C-16.44529952 0.73198262 -15.06639395 0.64733553 -13.6875 0.5625 C-12.99720703 0.52318359 -12.30691406 0.48386719 -11.59570312 0.44335938 C-0.7191311 -0.23971037 -0.7191311 -0.23971037 0 0 Z " fill="#9C53C5" transform="translate(269,279)"/>
<path d="M0 0 C3.7910119 1.44950455 7.3874638 3.15172566 11 5 C11 5.33 11 5.66 11 6 C9.35 6 7.7 6 6 6 C6 6.66 6 7.32 6 8 C5.34 8 4.68 8 4 8 C3.896875 7.38125 3.79375 6.7625 3.6875 6.125 C3.12474627 3.63473516 3.12474627 3.63473516 0 2 C0 1.34 0 0.68 0 0 Z " fill="#B551DB" transform="translate(292,350)"/>
<path d="M0 0 C2.97 0.495 2.97 0.495 6 1 C6.12375 1.804375 6.2475 2.60875 6.375 3.4375 C6.684375 4.7059375 6.684375 4.7059375 7 6 C7.66 6.33 8.32 6.66 9 7 C5.62537285 6.45276317 3.91765 5.9451 1 4 C0.3125 1.875 0.3125 1.875 0 0 Z " fill="#BA73DC" transform="translate(223,298)"/>
<path d="M0 0 C0.66 0 1.32 0 2 0 C2.33 2.31 2.66 4.62 3 7 C0.36 8.65 -2.28 10.3 -5 12 C-3 8 -3 8 -1.375 6 C0.37768588 3.85514888 0.37768588 3.85514888 0 0 Z " fill="#B17FC5" transform="translate(209,194)"/>
<path d="M0 0 C-1 3 -1 3 -4 5 C-7.6875 4.625 -7.6875 4.625 -11 4 C-7.32740617 1.55160412 -4.45351799 0 0 0 Z " fill="#BD90CB" transform="translate(236,183)"/>
<path d="M0 0 C1.94140625 0.69140625 1.94140625 0.69140625 4 2 C4.71484375 4.27734375 4.71484375 4.27734375 4.9375 6.9375 C5.02902344 7.81277344 5.12054688 8.68804687 5.21484375 9.58984375 C5 12 5 12 3.50390625 13.81640625 C3.00761719 14.20699219 2.51132812 14.59757812 2 15 C2.03480469 14.12988281 2.03480469 14.12988281 2.0703125 13.2421875 C2.18250423 8.38588834 1.87514915 4.57067605 0 0 Z " fill="#A74ACC" transform="translate(317,332)"/>
<path d="M0 0 C4.455 2.97 4.455 2.97 9 6 C7.02 6.99 7.02 6.99 5 8 C2.2175651 6.60878255 1.44789935 4.69835788 0 2 C0 1.34 0 0.68 0 0 Z " fill="#B06ED7" transform="translate(229,269)"/>
<path d="M0 0 C0.99 0.33 1.98 0.66 3 1 C3.33 3.31 3.66 5.62 4 8 C2.68 8 1.36 8 0 8 C-0.79953138 4.71303767 -1.09658936 3.28976808 0 0 Z " fill="#F0D5F9" transform="translate(313,221)"/>
<path d="M0 0 C1.875 0.3125 1.875 0.3125 4 1 C6 4 6 4 6 7 C5.01 7.33 4.02 7.66 3 8 C0 2.25 0 2.25 0 0 Z " fill="#F5E0FB" transform="translate(305,208)"/>
<path d="M0 0 C0.8353125 0.37125 0.8353125 0.37125 1.6875 0.75 C-4.59821429 6.32142857 -4.59821429 6.32142857 -8.3125 6.75 C-6.99035643 2.78356928 -4.51439587 -0.4880428 0 0 Z " fill="#C8A7DA" transform="translate(176.3125,133.25)"/>
<path d="M0 0 C1.23367942 2.46735884 1 4.26809601 1 7 C1.33 7.66 1.66 8.32 2 9 C0.68 9 -0.64 9 -2 9 C-2.66 7.68 -3.32 6.36 -4 5 C-2.68 3.35 -1.36 1.7 0 0 Z " fill="#BE80D7" transform="translate(286,262)"/>
<path d="M0 0 C1.625 1.5625 1.625 1.5625 3 4 C2.1875 7.75 2.1875 7.75 1 11 C-1.08997373 7.60379269 -1.2632246 4.94836905 -1 1 C-0.67 0.67 -0.34 0.34 0 0 Z " fill="#EDCCFA" transform="translate(292,232)"/>
<path d="M0 0 C2.31 0 4.62 0 7 0 C6.34 1.32 5.68 2.64 5 4 C3.35 3.67 1.7 3.34 0 3 C0 2.01 0 1.02 0 0 Z " fill="#B464DB" transform="translate(181,313)"/>
<path d="M0 0 C1.65 0 3.3 0 5 0 C4.51171875 6.0546875 4.51171875 6.0546875 4 8 C3.01 8.66 2.02 9.32 1 10 C1.20625 9.0925 1.4125 8.185 1.625 7.25 C2.0127245 3.88972103 1.80411967 2.75924185 0 0 Z " fill="#A150C8" transform="translate(282,309)"/>
<path d="M0 0 C2.64 0.33 5.28 0.66 8 1 C8 1.99 8 2.98 8 4 C5.69 4 3.38 4 1 4 C0.67 2.68 0.34 1.36 0 0 Z " fill="#F9F4FA" transform="translate(224,187)"/>
<path d="M0 0 C2.31 0.66 4.62 1.32 7 2 C6.67 2.99 6.34 3.98 6 5 C3.69 4.67 1.38 4.34 -1 4 C-0.67 2.68 -0.34 1.36 0 0 Z " fill="#FAF3FA" transform="translate(180,184)"/>
<path d="M0 0 C1.11375 0.1546875 1.11375 0.1546875 2.25 0.3125 C0.765 1.7975 0.765 1.7975 -0.75 3.3125 C-0.42 3.9725 -0.09 4.6325 0.25 5.3125 C-2.06 5.3125 -4.37 5.3125 -6.75 5.3125 C-3.42692308 0.38942308 -3.42692308 0.38942308 0 0 Z " fill="#F9ECFB" transform="translate(238.75,182.6875)"/>
<path d="M0 0 C2.64 0 5.28 0 8 0 C8 0.33 8 0.66 8 1 C6.02 1.66 4.04 2.32 2 3 C1.67 5.64 1.34 8.28 1 11 C-1.78637633 6.8204355 -0.79562512 4.85331323 0 0 Z " fill="#966AB4" transform="translate(296,157)"/>
<path d="M0 0 C0.33 0 0.66 0 1 0 C1.45572917 1.98567708 1.91145833 3.97135417 2.3671875 5.95703125 C2.98007723 8.27742974 2.98007723 8.27742974 5 11 C3.35 11 1.7 11 0 11 C0 7.37 0 3.74 0 0 Z " fill="#A54DCB" transform="translate(176,302)"/>
<path d="M0 0 C1.98 0.66 3.96 1.32 6 2 C5.67 3.32 5.34 4.64 5 6 C3.68 5.67 2.36 5.34 1 5 C0.67 3.35 0.34 1.7 0 0 Z " fill="#D38FF1" transform="translate(281,304)"/>
<path d="M0 0 C0.66 0.66 1.32 1.32 2 2 C1.7578125 4.6015625 1.7578125 4.6015625 1.125 7.625 C0.81949219 9.12933594 0.81949219 9.12933594 0.5078125 10.6640625 C0.34023438 11.43492187 0.17265625 12.20578125 0 13 C-0.66 13 -1.32 13 -2 13 C-1.34 8.71 -0.68 4.42 0 0 Z " fill="#E6B2FB" transform="translate(317,251)"/>
<path d="M0 0 C3.25 -0.375 3.25 -0.375 7 0 C9.4375 3 9.4375 3 11 6 C7.2089881 4.55049545 3.6125362 2.84827434 0 1 C0 0.67 0 0.34 0 0 Z " fill="#B177C7" transform="translate(267,211)"/>
<path d="M0 0 C0.66 0.33 1.32 0.66 2 1 C0.71937515 2.7074998 -0.61767557 4.37373596 -2 6 C-2.66 6 -3.32 6 -4 6 C-4 6.66 -4 7.32 -4 8 C-4.66 8 -5.32 8 -6 8 C-5.67 6.68 -5.34 5.36 -5 4 C-4.34 4 -3.68 4 -3 4 C-3 3.34 -3 2.68 -3 2 C-2.01 1.34 -1.02 0.68 0 0 Z " fill="#AA87CF" transform="translate(288,144)"/>
<path d="M0 0 C0.33 0.99 0.66 1.98 1 3 C1.66 3 2.32 3 3 3 C3.33 5.97 3.66 8.94 4 12 C1.49484216 9.49484216 0.94900914 7.38931835 0 4 C0 2.68 0 1.36 0 0 Z " fill="#A45CC4" transform="translate(192,258)"/>
<path d="M0 0 C0.66 0 1.32 0 2 0 C2 0.99 2 1.98 2 3 C2.66 3.33 3.32 3.66 4 4 C1.625 5.0625 1.625 5.0625 -1 6 C-1.66 5.67 -2.32 5.34 -3 5 C-1.125 1.125 -1.125 1.125 0 0 Z " fill="#F8E0FD" transform="translate(207,203)"/>
<path d="M0 0 C1.1875 1.5625 1.1875 1.5625 2 4 C0.625 7.75 0.625 7.75 -1 11 C-1.33 11 -1.66 11 -2 11 C-1.85957123 9.35369672 -1.71250671 7.70795821 -1.5625 6.0625 C-1.48128906 5.14597656 -1.40007812 4.22945313 -1.31640625 3.28515625 C-1 1 -1 1 0 0 Z " fill="#C877ED" transform="translate(277,328)"/>
<path d="M0 0 C2.4375 1.1875 2.4375 1.1875 5 3 C5.8125 5.6875 5.8125 5.6875 6 8 C5.34 8 4.68 8 4 8 C4 7.34 4 6.68 4 6 C3.34 6 2.68 6 2 6 C0 3 0 3 0 0 Z " fill="#CB90F1" transform="translate(224,264)"/>
<path d="M0 0 C0.33 0.99 0.66 1.98 1 3 C0.34 3 -0.32 3 -1 3 C-0.67 4.32 -0.34 5.64 0 7 C-1.32 6.34 -2.64 5.68 -4 5 C-3.6875 3.0625 -3.6875 3.0625 -3 1 C-2.01 0.67 -1.02 0.34 0 0 Z " fill="#F4D7F9" transform="translate(204,209)"/>
<path d="M0 0 C0.66 0.33 1.32 0.66 2 1 C1.01 1 0.02 1 -1 1 C-0.67 0.67 -0.34 0.34 0 0 Z M-3 1 C-2.34 1.66 -1.68 2.32 -1 3 C-1.33 3.99 -1.66 4.98 -2 6 C-3.32 5.34 -4.64 4.68 -6 4 C-6 3.34 -6 2.68 -6 2 C-5.01 1.67 -4.02 1.34 -3 1 Z " fill="#C068E8" transform="translate(289,359)"/>
<path d="M0 0 C1.98 0 3.96 0 6 0 C4.02 2.31 2.04 4.62 0 7 C-1.33332095 4.3333581 -0.67102033 2.83319697 0 0 Z " fill="#A34DCC" transform="translate(293,328)"/>
<path d="M0 0 C0.66 0.33 1.32 0.66 2 1 C-1.625 6.875 -1.625 6.875 -5 8 C-3.8141763 4.62496331 -2.72426311 2.35277269 0 0 Z " fill="#A654CB" transform="translate(168,285)"/>
<path d="M0 0 C0.66 0.33 1.32 0.66 2 1 C1.67 1.99 1.34 2.98 1 4 C-1.64 4 -4.28 4 -7 4 C-6.1028125 3.566875 -6.1028125 3.566875 -5.1875 3.125 C-2.80672208 1.95257974 -2.80672208 1.95257974 0 0 Z " fill="#A441CD" transform="translate(313,352)"/>
<path d="M0 0 C0.99 0.33 1.98 0.66 3 1 C3 1.66 3 2.32 3 3 C3.66 3.33 4.32 3.66 5 4 C4.02149805 5.02104551 3.02019573 6.0206121 2 7 C1.67 7 1.34 7 1 7 C0.67 4.69 0.34 2.38 0 0 Z " fill="#D28EF2" transform="translate(193,302)"/>
</svg>